<svg width="48" height="48" viewBox="0 0 48 48" fill="none" xmlns="http://www.w3.org/2000/svg">
<path d="M39.0581 14.19C39.5166 12.711 39.6637 11.1531 39.4901 9.61437C39.3165 8.07569 38.8259 6.58968 38.0494 5.25002C37.9177 5.02195 37.7283 4.83256 37.5002 4.7009C37.2721 4.56925 37.0134 4.49997 36.75 4.50002C35.0029 4.49637 33.2791 4.90139 31.7164 5.68275C30.1537 6.4641 28.7954 7.60011 27.75 9.00002H23.25C22.2046 7.60011 20.8463 6.4641 19.2836 5.68275C17.7209 4.90139 15.9971 4.49637 14.25 4.50002C13.9866 4.49997 13.7279 4.56925 13.4998 4.7009C13.2717 4.83256 13.0823 5.02195 12.9506 5.25002C12.1741 6.58968 11.6835 8.07569 11.5099 9.61437C11.3363 11.1531 11.4834 12.711 11.9419 14.19C11.0151 15.8076 10.5187 17.6359 10.5 19.5V21C10.5032 23.538 11.4245 25.9892 13.0939 27.9009C14.7633 29.8126 17.068 31.0557 19.5825 31.4007C18.5561 32.714 17.999 34.3332 18 36V37.5H13.5C12.3065 37.5 11.1619 37.0259 10.318 36.182C9.47411 35.3381 9 34.1935 9 33C9 32.0151 8.80601 31.0398 8.4291 30.1299C8.05219 29.22 7.49974 28.3932 6.8033 27.6967C6.10686 27.0003 5.28007 26.4478 4.37013 26.0709C3.46018 25.694 2.48491 25.5 1.5 25.5C1.10218 25.5 0.720644 25.6581 0.43934 25.9394C0.158035 26.2207 0 26.6022 0 27C0 27.3978 0.158035 27.7794 0.43934 28.0607C0.720644 28.342 1.10218 28.5 1.5 28.5C2.69347 28.5 3.83807 28.9741 4.68198 29.818C5.52589 30.662 6 31.8066 6 33C6 34.9891 6.79018 36.8968 8.1967 38.3033C9.60322 39.7098 11.5109 40.5 13.5 40.5H18V43.5C18 43.8979 18.158 44.2794 18.4393 44.5607C18.7206 44.842 19.1022 45 19.5 45C19.8978 45 20.2794 44.842 20.5607 44.5607C20.842 44.2794 21 43.8979 21 43.5V36C21 34.8066 21.4741 33.662 22.318 32.818C23.1619 31.9741 24.3065 31.5 25.5 31.5C26.6935 31.5 27.8381 31.9741 28.682 32.818C29.5259 33.662 30 34.8066 30 36V43.5C30 43.8979 30.158 44.2794 30.4393 44.5607C30.7206 44.842 31.1022 45 31.5 45C31.8978 45 32.2794 44.842 32.5607 44.5607C32.842 44.2794 33 43.8979 33 43.5V36C33.001 34.3332 32.4439 32.714 31.4175 31.4007C33.932 31.0557 36.2367 29.8126 37.9061 27.9009C39.5755 25.9892 40.4968 23.538 40.5 21V19.5C40.4813 17.6359 39.9849 15.8076 39.0581 14.19ZM37.5 21C37.5 22.9891 36.7098 24.8968 35.3033 26.3033C33.8968 27.7098 31.9891 28.5 30 28.5H21C19.0109 28.5 17.1032 27.7098 15.6967 26.3033C14.2902 24.8968 13.5 22.9891 13.5 21V19.5C13.5184 18.0001 13.9675 16.537 14.7938 15.285C14.9478 15.082 15.0475 14.8431 15.0836 14.5908C15.1197 14.3385 15.0909 14.0812 15 13.8431C14.6092 12.8355 14.4211 11.7607 14.4465 10.6803C14.4719 9.59982 14.7104 8.53501 15.1481 7.5469C16.3757 7.67896 17.5578 8.08562 18.6069 8.73672C19.6559 9.38783 20.545 10.2667 21.2081 11.3081C21.3433 11.5195 21.5292 11.6935 21.749 11.8144C21.9688 11.9353 22.2154 11.9991 22.4662 12H28.5319C28.7837 12 29.0314 11.9367 29.2523 11.8157C29.4731 11.6948 29.66 11.5203 29.7956 11.3081C30.4587 10.2666 31.3477 9.38766 32.3968 8.73655C33.4458 8.08543 34.628 7.67883 35.8556 7.5469C36.2928 8.53526 36.5306 9.60019 36.5553 10.6806C36.5801 11.7611 36.3914 12.8358 36 13.8431C35.9093 14.0789 35.879 14.3336 35.9118 14.5841C35.9445 14.8346 36.0393 15.073 36.1875 15.2775C37.0222 16.5294 37.4779 17.9956 37.5 19.5V21Z" fill="white"/>
</svg>
